<?xml version="1.0" encoding="UTF-8"?>
<svg id="_4" data-name="4" xmlns="http://www.w3.org/2000/svg" viewBox="0 0 60 60">
  <defs>
    <style>
      .cls-1 {
        fill: #009690;
      }

      .cls-2 {
        fill: #fff;
      }
    </style>
  </defs>
  <g>
    <path class="cls-1" d="M4.03,28.95c13.73-4.9,27.91-8.01,42.06-11.12.96-.21,1.95-.42,2.93-.26,1.2.2,2.25.96,3.24,1.74,1.49,1.19,2.9,2.48,4.23,3.88.28.3.58.66.55,1.09-.03.47-.44.77-.81,1-2.28,1.38-4.81,2.17-7.31,2.95-10.47,3.26-20.98,4.98-31.45,8.24-.83.26-1.67.52-2.53.44-.84-.08-1.63-.49-2.38-.94-1.83-1.12-2.96-2.18-4.53-3.07-1.38-.78-3.13-2.66-4.01-3.94"/>
    <path class="cls-1" d="M4.51,30.69c7.07-2.51,14.29-4.58,21.57-6.41,3.55-.89,7.12-1.73,10.7-2.54s7.06-1.8,10.62-2.35c1.62-.25,2.69.48,3.91,1.47.69.55,1.35,1.14,2,1.73.35.33,1.49,1.81,1.9,1.87l.11.13c.26-.89.13-1.11-.38-.66-.35.06-.85.46-1.17.61-.65.31-1.32.58-2,.83-1.71.63-3.46,1.15-5.2,1.67-7.28,2.15-14.72,3.66-22.07,5.56-2.04.53-4.08,1.08-6.1,1.69-.87.26-1.76.65-2.66.77-1.03.14-1.83-.39-2.67-.93-1.44-.92-2.8-1.98-4.25-2.89-1.26-.8-2.37-2-3.23-3.21-1.34-1.88-4.48-.08-3.13,1.83.93,1.3,1.98,2.53,3.21,3.55,1.33,1.1,2.87,1.97,4.28,2.98,1.54,1.1,3.23,2.28,5.2,2.33s4.16-.94,6.08-1.48c8.15-2.32,16.49-3.92,24.65-6.22,3.75-1.06,7.95-2.04,11.26-4.17,1.64-1.06,2.25-2.89.97-4.51-1.14-1.45-2.65-2.71-4.07-3.88s-2.92-2.36-4.79-2.66c-1.99-.31-4.06.38-5.98.8-4.12.91-8.24,1.82-12.35,2.79-9.24,2.18-18.42,4.64-27.38,7.82-2.18.77-1.24,4.28.96,3.49h0Z"/>
  </g>
  <g>
    <path class="cls-1" d="M36.75,19.74c-6.3-3.76-11.44-6.69-17.84-10.23-.31-.17-.65-.35-.99-.31-.35.04-.65.29-.93.53-1.59,1.39-3.19,2.78-4.78,4.18,2.97,2.49,5.78,5.22,8.4,8.15"/>
    <path class="cls-1" d="M37.67,18.18c-4.44-2.65-8.92-5.24-13.43-7.78-1.12-.63-2.25-1.26-3.38-1.88-1.06-.59-2.15-1.33-3.42-1.07s-2.28,1.49-3.2,2.29c-1.1.96-2.21,1.93-3.31,2.89-.69.61-.71,1.96,0,2.56,2.99,2.52,5.79,5.25,8.4,8.15,1.56,1.74,4.12-.83,2.56-2.56-2.61-2.91-5.41-5.63-8.4-8.15v2.56c.98-.86,1.96-1.71,2.94-2.57.43-.37.86-.75,1.29-1.12.18-.16.37-.32.55-.48-.42.03-.37.13.14.29.85.75,2.22,1.24,3.21,1.79.9.5,1.8,1.01,2.69,1.52,3.86,2.19,7.7,4.42,11.52,6.7,2.01,1.2,3.83-1.93,1.83-3.13h0Z"/>
  </g>
  <g>
    <path class="cls-1" d="M25.45,31.11c-2.85,6.08-5.31,12.38-7.35,18.85-.04.13-.08.26-.05.39.05.23.29.33.5.38,1.23.27,2.51-.2,3.55-.99s1.87-1.85,2.69-2.9c4.65-5.99,9.3-11.97,13.95-17.96"/>
    <path class="cls-1" d="M23.89,30.2c-1.58,3.38-3.05,6.81-4.39,10.29-.67,1.74-1.31,3.49-1.91,5.25-.29.85-.58,1.7-.85,2.56-.31.95-.75,2.01-.25,2.97.81,1.53,2.94,1.55,4.39,1.11,1.62-.49,2.95-1.58,4.05-2.84,2.46-2.82,4.64-5.92,6.94-8.87,2.72-3.5,5.44-7,8.16-10.51.6-.77.75-1.81,0-2.56-.62-.62-1.96-.78-2.56,0-3.16,4.07-6.32,8.13-9.48,12.2-1.53,1.97-3.05,3.94-4.59,5.91-.66.85-1.33,1.74-2.16,2.42-.42.34-1.68,1.17-2.16.85l.65.65-.11-.19.25.91c.1-.73.52-1.57.75-2.28.26-.79.53-1.57.81-2.35.55-1.56,1.12-3.12,1.72-4.66,1.19-3.06,2.48-6.07,3.87-9.04.41-.89.25-1.95-.65-2.48-.78-.46-2.06-.24-2.48.65h0Z"/>
  </g>
  <g>
    <path class="cls-1" d="M13.14,25.24c-1.19-1.11-2.75-2.32-3.68-3.27-.13-.13-.27-.32-.41-.42-.18-.12-.27-.11-.47-.03-1.17.44-1.64.88-2.8,1.32-.11.04-.23.09-.29.2-.09.16-.04.36.03.53.37,1.05.85,2.06,1.42,2.99"/>
    <path class="cls-1" d="M14.42,23.96c-.96-.89-1.98-1.7-2.95-2.58-.39-.36-.74-.77-1.14-1.11-.6-.5-1.34-.77-2.12-.54-.4.12-.79.31-1.17.48-.53.25-1.02.55-1.55.79l-.12.05c-.18.08-.16.07.06-.02-.21.15-.51.18-.73.31-.63.37-1.05,1.06-1.06,1.79-.02.87.43,1.74.77,2.51.28.63.6,1.24.96,1.83.49.81,1.65,1.18,2.48.65s1.17-1.61.65-2.48c-.31-.51-.59-1.04-.84-1.58-.04-.09-.16-.28-.17-.38.09.22.1.24.02.05l-.05-.13c-.05-.13-.1-.26-.15-.39-.03-.08-.06-.16-.08-.24.03.18.03.36,0,.54l-.47.8-.24.16c-.29.12-.36.14-.2.08.14-.05.28-.11.42-.17.23-.1.46-.19.69-.3.31-.15.61-.32.91-.48.16-.08.31-.16.47-.24.08-.04.15-.07.23-.11.12-.05.08-.04-.12.05l.14-.05.11-.04-1.32-.33c.04.08.15.16.21.22.11.12.22.24.34.35,1.1,1.07,2.33,2.01,3.45,3.05.7.64,1.88.74,2.56,0,.64-.7.74-1.87,0-2.56h0Z"/>
  </g>
  <path class="cls-2" d="M11.75,32.72c2.9,0,2.9-4.5,0-4.5s-2.9,4.5,0,4.5h0Z"/>
  <path class="cls-2" d="M18.93,30.49c2.9,0,2.9-4.5,0-4.5s-2.9,4.5,0,4.5h0Z"/>
  <path class="cls-2" d="M26.43,28.74c2.9,0,2.9-4.5,0-4.5s-2.9,4.5,0,4.5h0Z"/>
  <path class="cls-2" d="M33.61,26.5c2.9,0,2.9-4.5,0-4.5s-2.9,4.5,0,4.5h0Z"/>
  <path class="cls-2" d="M41.26,24.11c2.9,0,2.9-4.5,0-4.5s-2.9,4.5,0,4.5h0Z"/>
  <path class="cls-2" d="M48.4,22.11c1.57-.47,3.11-1.06,4.68-1.53.55-.16,1.05-.54,1.34-1.03s.4-1.19.23-1.73-.51-1.07-1.03-1.34-1.15-.4-1.73-.23c-1.57.47-3.11,1.06-4.68,1.53-.55.16-1.05.54-1.34,1.03s-.4,1.19-.23,1.73.51,1.07,1.03,1.34,1.15.4,1.73.23h0Z"/>
</svg>