<?xml version="1.0" encoding="UTF-8"?>
<svg id="_10" data-name="10" xmlns="http://www.w3.org/2000/svg" viewBox="0 0 60 60">
  <defs>
    <style>
      .cls-1 {
        fill: #009690;
        stroke: #009690;
        stroke-linejoin: round;
        stroke-width: 5.8px;
      }

      .cls-2, .cls-3 {
        fill: #fff;
      }

      .cls-3 {
        stroke: #fff;
        stroke-miterlimit: 10;
        stroke-width: 5.71px;
      }

      .cls-4 {
        fill: #e69a00;
      }
    </style>
  </defs>
  <rect class="cls-3" x="9.4" y="30.97" width="41.19" height="5.06"/>
  <path class="cls-1" d="M11.52,19.92h36.96c2.27,0,4.11,1.84,4.11,4.11v3.63H7.41v-3.63c0-2.27,1.84-4.11,4.11-4.11Z"/>
  <rect class="cls-1" x="9.4" y="37.74" width="41.19" height="14.41"/>
  <path class="cls-4" d="M26.62,19.65c-.24,10.27-.2,20.53.11,30.79.17,5.53,6.62,5.7,6.45.08-.31-10.26-.35-20.53-.11-30.79.13-5.58-6.32-5.67-6.45-.08h0Z"/>
  <g>
    <path class="cls-2" d="M29.24,19.31c-3.88.23-7.82-1.62-10.13-4.75-.77-1.05-1.39-2.29-1.37-3.59.02-1.57,1.01-3.05,2.38-3.82s3.07-.84,4.57-.37c1.98.63,3.62,2.24,4.3,4.21.65,1.9.42,3.97.19,5.97.69-2.83-.14-6,1.14-8.62.9-1.83,2.83-3.11,4.86-3.25s4.11.85,5.31,2.5c.47.66.82,1.42.87,2.23.14,2.23-1.87,3.95-3.75,5.15-2.61,1.67-5.63,3.18-8.7,2.67"/>
    <path class="cls-4" d="M29.27,17.06c-2.38.1-4.77-.5-6.73-1.9-1.27-.91-3.99-3.16-2.9-4.94,1.28-2.07,4.49-1.76,6.19-.47,2.18,1.66,2.09,4.09,1.8,6.59-.11.98,0,2.36,1.09,2.78s1.81-.66,2-1.55c.33-1.51.37-3.05.4-4.58.03-1.21,0-2.56.65-3.63,1.33-2.19,4.43-2.59,6.47-1.22.69.47,1.7,1.34,1.41,2.25-.32,1-1.61,1.8-2.41,2.35-2.45,1.66-5.27,3.07-8.3,2.65-2.09-.29-2.22,4.2-.06,4.5,3.94.54,8.26-1.66,11.18-4.19,3.31-2.87,3.94-7.48.69-10.73-2.73-2.72-7.18-2.82-10.01-.21-1.48,1.37-2.32,3.23-2.62,5.21-.32,2.11-.03,4.28-.49,6.37l3.09,1.24c.49-4.17.52-8.71-3.08-11.58-3.01-2.41-7.55-2.4-10.05.74-2.77,3.48-1.19,7.98,1.61,10.86,2.58,2.65,6.31,4.11,10,3.95,2.17-.09,2.2-4.59.06-4.5h0Z"/>
  </g>
</svg>