<?xml version="1.0" encoding="UTF-8"?>
<svg id="_圖層_2" data-name="圖層 2" xmlns="http://www.w3.org/2000/svg" viewBox="0 0 25 25">
  <defs>
    <style>
      .cls-1 {
        fill: none;
        stroke-width: 6.19px;
      }

      .cls-1, .cls-2 {
        stroke: #000;
        stroke-linecap: round;
        stroke-miterlimit: 10;
      }

      .cls-2 {
        stroke-width: .03px;
      }
    </style>
  </defs>
  <circle class="cls-1" cx="12.53" cy="12.81" r="5.55"/>
  <path class="cls-2" d="M16.46,5.5h-7.86l.7-3c.14-.6.68-1.03,1.3-1.03h3.97c.64,0,1.19.45,1.31,1.08l.58,2.95Z"/>
  <path class="cls-2" d="M8.6,20.12h7.86s-.7,3-.7,3c-.14.6-.68,1.03-1.3,1.03h-3.97c-.64,0-1.19-.45-1.31-1.08l-.58-2.95Z"/>
  <path class="cls-2" d="M16.97,19.57l3.93-6.81,2.24,2.11c.45.42.55,1.1.24,1.64l-1.99,3.44c-.32.55-.99.8-1.59.6l-2.84-.97Z"/>
  <path class="cls-2" d="M20.39,12.34l-3.93-6.81,2.95-.89c.59-.18,1.23.07,1.54.61l1.99,3.44c.32.55.2,1.25-.28,1.67l-2.26,1.97Z"/>
  <path class="cls-2" d="M8.09,5.46l-3.93,6.81-2.24-2.11c-.45-.42-.55-1.1-.24-1.64l1.99-3.44c.32-.55.99-.8,1.59-.6l2.84.97Z"/>
  <path class="cls-2" d="M4.19,12.81l3.93,6.81-2.95.89c-.59.18-1.23-.07-1.54-.61l-1.99-3.44c-.32-.55-.2-1.25.28-1.67l2.26-1.97Z"/>
</svg>