<?xml version="1.0" encoding="UTF-8"?>
<svg id="_圖層_2" data-name="圖層 2" xmlns="http://www.w3.org/2000/svg" viewBox="0 0 25 25">
  <defs>
    <style>
      .cls-1 {
        fill: none;
        stroke: #000;
        stroke-miterlimit: 10;
        stroke-width: 2.31px;
      }
    </style>
  </defs>
  <circle class="cls-1" cx="12.5" cy="12.81" r="9.9"/>
  <path d="M6.7,5.94c.7.8,1.72,1.14,2.76,1.22s2.13-.22,3.21-.2c.58.01,1.48.21,1.54.92.03.29-.03.85-.22,1.07-.08.09-.32.16-.42.22-.3.15-.6.3-.9.45-.96.49-2.16,1.06-2.1,2.33.02.34.16.65.38.91.03.03.31.39.21.22-.06-.1.02-.01-.02.04-.07.11-.09.19-.2.24-.64.32-1.47-.5-1.92-.85-.42-.34-.86-.65-1.38-.81-.64-.2-1.28-.12-1.94-.16-.16,0-.59-.05-.62-.14-.04-.11.17-.39.22-.48.17-.31.34-.62.51-.92.31-.55.64-1.1.97-1.64.17-.28.46-.98.81-1.1l-1.37-1.37c-.09.46-.36.81-.63,1.18-.33.46-.62.94-.84,1.46-.43,1.01-1.03,2.65.12,3.39.94.6,2.19.94,3.28,1.12.43.07.9.08,1.24.39.4.37.73.77,1.22,1.03.54.28,1.19.14,1.52-.4,1.04-1.69-1.22-2.6-2.28-3.34-.41-.28-.64-.58-.54-1.1.13-.67.54-1.54.94-2.08l-.4.4h-.05c-.2.01-.39.01-.59.01l.1.03-.49-.29.08.06-.29-.49.02.09.29-1.08c-.29.27-.72.4-1.04.64-.38.28-.7.59-.98.97-.56.74-.84,1.6-.89,2.52-.05.78,1,1.46,1.67.96.3-.23.59-.46.89-.68.09-.07.6-.31.63-.38,0-.02-.16-.31-.13-.3-.09-.01-.17,1.03-.16,1.13.05.67.68,1.32,1.41,1.07,1.39-.48,2.67-1.28,3.62-2.41.53-.63,1.02-1.36.54-2.18-.37-.64-1.26-.96-1.95-1.07s-1.45-.07-2.13.2-1.48.71-1.69,1.46c-.28,1.01.67,1.69,1.57,1.59.86-.1,1.65-.36,2.42-.75l-1.63-.66s-.06.11-.05.16c.06.27-.35.06.09.12l.96.55c.32.43-.15.3.13.11.08-.05.09-.08.2-.14.62-.34.73-1.25.22-1.74-1.01-.98-2.51-.96-3.56-.06-.46.39-.4,1.17,0,1.57.45.45,1.11.39,1.57,0,.13-.11.32-.03.42.06l.22-1.74c-.63.35-1.12.94-1.3,1.65-.22.86.11,1.91,1.13,1.97.72.04,1.39-.5,1.75-1.09.39-.63.45-1.29.35-2-.11-.75-1.07-.95-1.63-.66-.27.14-.53.24-.83.33-.13.04-.25.07-.38.09-.03,0-.41.02-.21.07l.49.29-.08-.07.29.49-.02-.12-.11.86c.08-.17.66-.33.92-.35.33-.03.87.03,1.08.25l-.29-.49v-.04c.05-.19.1-.37.15-.56-.22.51-.78.98-1.22,1.31-.5.38-1.07.68-1.66.88l1.41,1.07c-.04-.61.26-1.13.05-1.76s-.74-1.04-1.34-1.21c-1.29-.38-2.34.56-3.29,1.28l1.67.96c.03-.53.27-1.03.63-1.42.46-.48,1.14-.68,1.63-1.14.29-.27.38-.71.29-1.08-.15-.57-.67-1-1.27-1s-1.09.43-1.36.97c-.49.98-1.09,2.03-1.09,3.16,0,1.05.56,1.91,1.38,2.53.34.26.7.47,1.06.68.16.09.67.35.69.45v-.59l.02-.03,1.52-.4c-.38-.2-.63-.57-.96-.84-.47-.39-1-.62-1.6-.73-.55-.1-1.1-.19-1.64-.34-.26-.08-.52-.16-.78-.26-.14-.05-.27-.11-.4-.17-.05-.02-.37-.22-.22-.08l.29.49c-.03.14-.02.1.02-.11.02-.12.05-.24.08-.36.05-.18.1-.36.17-.53.13-.34.31-.67.51-.98.45-.7.99-1.31,1.16-2.15.16-.77-.51-1.66-1.37-1.37-1.05.36-1.58,1.22-2.13,2.12s-1.1,1.79-1.57,2.72c-.5,1-.66,2.16.22,3.01.7.68,1.68.79,2.61.79.49,0,.87,0,1.28.29.33.23.63.52.96.76.83.61,1.9.96,2.93.76.91-.18,1.63-.85,1.93-1.71.15-.43.19-.92.07-1.36-.06-.21-.15-.42-.27-.61-.1-.15-.32-.34-.39-.49l.15.56c.07.67-.15.14-.06.15.04,0,.44-.25.46-.26.36-.19.73-.37,1.1-.55.65-.33,1.3-.64,1.68-1.3.71-1.27.65-3.11-.41-4.15s-2.46-1.18-3.81-1.05c-1.09.11-2.64.53-3.47-.42-.94-1.08-2.51.5-1.57,1.57h0Z"/>
  <path d="M14.71,16.39c.56,0,1.11,0,1.67.04.27.02.54.04.81.07.07,0,.14.02.21.02.19.02.03-.04-.03,0,.03-.02.14.06.16.04-.02.02-.2-.09-.22-.11-.15-.13-.08-.06-.03,0-.1-.1-.03-.11,0,0,.02.08.08.42.06.17,0,.11.02.22.01.34,0,.06,0,.13-.01.19,0,.16.06-.24,0,.04-.03.11-.05.22-.08.33-.02.07-.12.33-.04.14-.11.25-.24.49-.39.72-.13.21-.27.4-.41.6-.04.05-.07.1-.11.15,0-.01.11-.13.03-.04-.09.11-.18.22-.28.32-.04.04-.09.09-.13.13-.01.01-.13.12-.03.03.12-.1-.3.18-.14.1.12-.06,0,0-.04,0,.27,0,.07,0,.04,0,.28.05.12.03.06,0-.19-.07.12.09.01,0-.04-.03-.09-.06-.14-.08-.11-.07.07.04.06.05-.01.01-.22-.22-.23-.24-.03-.03-.15-.15.02.03-.04-.04-.07-.09-.1-.13-.07-.11-.15-.21-.21-.32-.27-.43-.49-.87-.71-1.33-.07-.15.06.16,0,0-.03-.08-.06-.15-.09-.23-.02-.06-.05-.12-.07-.18-.02-.05-.03-.26-.05-.14,0,.06,0,.12-.02.18.06-.21-.13.21-.02.03.02-.04.09-.1-.01,0-.13.14.01,0,.04-.04.33-.34.73-.62.93-1.07s.2-.96-.17-1.35c-.33-.33-.79-.44-1.23-.3-.39.12-.65.41-.88.73-.3.42-.47,1.01-.44,1.52.06,1.13.83,2.1,1.92,2.39.53.14,1.27-.18,1.37-.78.07-.42.12-.85.2-1.27.02-.12.11-.19-.04.02l-1.42.07c.05.1.06.1.02.02-.07-.13.03.11.04.16.01.04.02.09.03.13-.02-.13-.02-.16-.01-.07.01.32.02.64,0,.96-.02.25.07-.23,0,0,0,.03-.05.21-.06.21l.06-.13c-.05.08-.05.08.01,0,.06-.07.06-.07,0,0,.14-.1.16-.11.06-.05l1.63.66c-.03-.12-.06-.23-.09-.35-.06-.28,0,.22,0-.07,0-.11,0-.21,0-.32,0-.06.01-.4,0-.11,0-.21.1-.42.16-.62.07-.22-.09.15.03-.07.05-.09.1-.18.15-.27.04-.07.03-.05-.05.07-1.01-.27-1.35-.26-1.04.04-.09-.12-.11-.14-.07-.07.02.03.03.06.05.09-.06-.16-.08-.18-.04-.07.03.12.03.09,0-.09-.02.03,0,.18,0,.21.01.22.07-.21,0-.01-.01.05-.02.09-.04.14.07-.15.08-.18.03-.07-.02.03-.03.06-.05.09-.05.07-.02.04.07-.08,0,0-.19.18-.21.19l1.86.49s-.02-.09-.03-.14c-.02-.08-.01-.06,0,.06-.02-.02,0-.26,0-.28v.11c0-.06.02-.12.04-.18l.03-.09c-.04.15-.13.26-.28.33l-.56.15h.07c-.19-.05-.37-.11-.56-.16l-.14-.12-.29-.49c-.07-.22-.02-.53.15-.7-.4.42-.45,1.16,0,1.57s1.14.45,1.57,0c.36-.38.59-.93.43-1.46-.23-.74-1.14-1.12-1.81-.7-.85.53-.99,1.78-.76,2.67.1.37.41.67.78.78.42.12.76-.03,1.08-.29.57-.44.89-1.25.85-1.96-.05-.92-.62-1.99-1.68-1.99s-1.58,1.09-1.81,1.95c-.21.78-.2,1.61.02,2.38.19.67,1.01,1.04,1.63.66.68-.42.95-1.11,1.03-1.88.06-.59.05-1.29-.14-1.85-.15-.44-.39-.89-.81-1.12-.51-.29-1.2-.23-1.62.21-.51.54-.5,1.38-.61,2.08l1.37-.78c-.05-.01-.1-.03-.15-.04.14.06.16.07.05.01-.05-.03-.09-.05-.13-.08.12.1.14.1.05.02-.04-.04-.07-.07-.11-.11.09.12.11.13.04.03-.03-.04-.05-.09-.07-.14.05.13.07.16.04.08-.03-.29-.04.17-.02-.07,0-.05,0-.11,0-.16-.02.16-.02.18,0,.05.01-.05.03-.11.05-.16-.06.14-.06.15,0,.04.07-.1.06-.09-.03.02.19-.2.03-.15-.5.15l-.78-.33.04.04-.17-1.35s-.09.17-.09.17c0-.02.19-.21.05-.07-.08.08-.16.16-.24.24-.22.2-.43.4-.6.65-.46.65-.35,1.41-.07,2.11s.57,1.3.95,1.91c.36.57.77,1.14,1.36,1.48.74.43,1.65.39,2.35-.1.62-.43,1.06-1.01,1.49-1.62.81-1.16,1.4-2.69.89-4.1-.18-.49-.45-.96-.92-1.2-.43-.22-.91-.24-1.38-.29-.79-.07-1.58-.1-2.37-.09-.58,0-1.14.5-1.11,1.11s.49,1.12,1.11,1.11h0Z"/>
</svg>