<?xml version="1.0" encoding="UTF-8"?>
<svg id="_3" data-name="3" xmlns="http://www.w3.org/2000/svg" viewBox="0 0 60 60">
  <defs>
    <style>
      .cls-1 {
        fill: #009690;
      }

      .cls-2 {
        fill: #fff;
      }

      .cls-3 {
        fill: #e69a00;
      }
    </style>
  </defs>
  <g>
    <path class="cls-2" d="M7.55,35.47c.54,16.36,22.73,22.39,34.12,14.49,27.75-20.39-3.88-57.36-29.44-34.24"/>
    <path class="cls-1" d="M4.04,35.47c1.32,20.31,27.96,27.66,42.26,15.26,14.67-12.72,11.51-35.95-6.53-43.74-10.63-4.59-21.62-1.07-30.03,6.24-3.42,2.97,1.57,7.92,4.97,4.97,6.94-6.04,16.27-8.55,24.56-3.61,6.58,3.93,10.85,11.74,9.39,19.44-1.66,8.77-9.76,15.71-18.64,15.86s-18.33-4.86-18.96-14.42c-.29-4.49-7.32-4.52-7.03,0h0Z"/>
  </g>
  <path class="cls-1" d="M6.52,5.66l-1.24,7.87c-.3,1.89-1.1,4.32-.45,6.22,1.34,3.9,7.97,3.93,11.3,4.54,4.42.81,6.32-5.96,1.87-6.78-1.49-.27-2.97-.55-4.45-.86-.66-.13-1.31-.27-1.97-.41-.33-.07-.66-.14-.98-.21-1.2-.36-.84.17,1.1,1.61.48-.29.61-3.86.71-4.5l.88-5.62c.69-4.42-6.07-6.33-6.78-1.87h0Z"/>
  <path class="cls-3" d="M24.47,22.27l-.27,6.8c-.07,1.87-.51,4.08.46,5.79,1.03,1.8,2.78,2.07,4.68,2.09,2.34.03,4.67,0,7.01,0,4.52,0,4.53-7.03,0-7.03-2.73,0-5.52.16-8.25-.02l1.77.48-.32-.14,1.26,1.26-.18-.36.48,1.77c-.15-3.51.24-7.12.38-10.63.18-4.52-6.85-4.51-7.03,0h0Z"/>
</svg>