<?xml version="1.0" encoding="UTF-8"?>
<svg id="_圖層_1" data-name="圖層 1" xmlns="http://www.w3.org/2000/svg" viewBox="0 0 25 25">
  <defs>
    <style>
      .cls-1 {
        stroke-width: 1.41px;
      }

      .cls-1, .cls-2 {
        fill: none;
        stroke: #000;
        stroke-miterlimit: 10;
      }

      .cls-2 {
        stroke-width: 2.23px;
      }
    </style>
  </defs>
  <path class="cls-2" d="M4.36,18.91c-1.25,0-2.28-.91-2.35-2.06-.23-3.77,1.09-11.38,10.5-11.38s10.65,7.49,10.59,11.29c-.02,1.2-1.07,2.15-2.36,2.15H4.36Z"/>
  <path class="cls-1" d="M13.16,15.58c0,.32-.28.58-.62.58s-.62-.26-.62-.58.23-3.39.57-3.39.67,3.07.67,3.39Z"/>
  <path d="M12.49,9.58c1.35,0,1.35-2.1,0-2.1s-1.35,2.1,0,2.1h0Z"/>
  <path d="M17.58,11.81c1.35,0,1.35-2.1,0-2.1s-1.35,2.1,0,2.1h0Z"/>
  <path d="M19.57,16.47c1.35,0,1.35-2.1,0-2.1s-1.35,2.1,0,2.1h0Z"/>
  <path d="M7.12,11.97c1.35,0,1.35-2.1,0-2.1s-1.35,2.1,0,2.1h0Z"/>
  <path d="M5.08,16.62c1.35,0,1.35-2.1,0-2.1s-1.35,2.1,0,2.1h0Z"/>
</svg>