<?xml version="1.0" encoding="UTF-8"?>
<svg id="_圖層_1" data-name="圖層 1" xmlns="http://www.w3.org/2000/svg" viewBox="0 0 25 25">
  <defs>
    <style>
      .cls-1 {
        stroke-width: 1.41px;
      }

      .cls-1, .cls-2, .cls-3 {
        stroke: #000;
        stroke-miterlimit: 10;
      }

      .cls-1, .cls-3 {
        fill: none;
      }

      .cls-2 {
        stroke-width: 1.56px;
      }

      .cls-3 {
        stroke-width: 2.23px;
      }
    </style>
  </defs>
  <path class="cls-3" d="M4.36,18.91c-1.25,0-2.28-.91-2.35-2.06-.23-3.77,1.09-11.38,10.5-11.38s10.65,7.49,10.59,11.29c-.02,1.2-1.07,2.15-2.36,2.15H4.36Z"/>
  <path class="cls-2" d="M12.8,8.47c0,.15-.13.33-.29.33s-.29-.12-.29-.27.13-.27.29-.27.29.06.29.2Z"/>
  <ellipse class="cls-2" cx="5.11" cy="15.58" rx=".29" ry=".27"/>
  <ellipse class="cls-2" cx="7.1" cy="10.9" rx=".29" ry=".27"/>
  <ellipse class="cls-2" cx="19.61" cy="15.47" rx=".29" ry=".27"/>
  <ellipse class="cls-2" cx="17.62" cy="10.79" rx=".29" ry=".27"/>
  <path class="cls-1" d="M13.16,15.58c0,.32-.28.58-.62.58s-.62-.26-.62-.58.23-3.39.57-3.39.67,3.07.67,3.39Z"/>
</svg>