<?xml version="1.0" encoding="UTF-8"?>
<svg id="_7" data-name="7" xmlns="http://www.w3.org/2000/svg" viewBox="0 0 60 60">
  <defs>
    <style>
      .cls-1 {
        stroke: #009690;
        stroke-miterlimit: 10;
        stroke-width: 1.16px;
      }

      .cls-1, .cls-2 {
        fill: #009690;
      }

      .cls-3 {
        fill: #fff;
      }

      .cls-4 {
        fill: #e69a00;
      }
    </style>
  </defs>
  <g>
    <path class="cls-4" d="M27.34,56.76c-15.97,0-15.83-7.47.64-9.53,4.48-.56,18.66,2,16.86,5.06-2.65,4.48-13.1,4.47-16.98,4.48"/>
    <path class="cls-4" d="M27.34,55.01c-2.68,0-5.44-.13-8.02-.97-.21-.07-.42-.14-.62-.22-.06-.02-.31-.14,0,0-.09-.04-.18-.08-.26-.12-.16-.08-.32-.16-.48-.26-.14-.08-.6-.43-.25-.14-.11-.09-.21-.19-.32-.29-.25-.22-.12-.23-.06-.06-.02-.05-.22-.47-.1-.14.1.28.04.08.02.01-.09-.35,0,.32,0,.14,0-.08.03-.48-.02-.14s.05-.1.08-.18c-.09.31-.09.24.03,0,.18-.35-.21.15.11-.15.11-.11.22-.22.34-.33.06-.06.13-.11.19-.16-.04.04-.3.22-.04.03.37-.27.76-.5,1.17-.72,2.09-1.1,4.84-1.71,7.36-2.13,4.23-.7,8.24-.05,12.29,1,.96.25,1.91.54,2.84.9.1.04.19.08.29.12-.31-.13-.06-.03,0,0,.19.09.38.18.56.28.15.08.3.16.44.25.07.04.13.09.2.13.33.19-.09-.09,0,0,.08.08.19.21.28.27-.06-.04-.19-.32,0,.03-.14-.26-.21-.6,0-.83-.12.13-.2.33-.3.47.2-.26-.21.21-.26.26-.44.44-.46.43-1.01.76-1.99,1.18-4.75,1.67-7.09,1.91s-4.56.28-6.85.29-2.25,3.5,0,3.49c5.03-.01,10.65-.04,15.22-2.41,1.79-.93,4.26-2.91,3.51-5.21-.64-1.98-3.15-2.87-4.91-3.47-2.39-.81-4.89-1.28-7.38-1.62-2.19-.3-4.44-.56-6.64-.28-3.32.43-6.64,1.07-9.7,2.48-1.72.79-3.63,2.06-4.12,4.01-.56,2.26,1.26,4.01,3.15,4.85,3.2,1.42,6.89,1.63,10.34,1.64,2.25,0,2.25-3.49,0-3.49h0Z"/>
  </g>
  <circle class="cls-1" cx="30" cy="21.17" r="17.93"/>
  <path class="cls-2" d="M30,35.08h-12.18c4.55,3.61,8.2,8.19,10.81,13.35.57,1.14,2.16,1.14,2.74,0,2.61-5.16,6.26-9.74,10.81-13.35h-12.18Z"/>
  <g>
    <path class="cls-3" d="M27.9,25.08c-.89-.42-1.28-.68-1.57-1.34s-.34-1.39-.35-2.11c0-1.41.31-3.05,1.57-3.68.56-.28,1.21-.29,1.83-.28,1.13.01,2.33.11,3.23.78,1.13.84,1.51,2.45,1.1,3.8s-1.49,2.41-2.75,3.04c-.31.16-.64.29-.99.3-.65.02-1.4-.19-2.08-.52"/>
    <path class="cls-3" d="M28.78,23.57c-.19-.09-.37-.18-.55-.28-.11-.06-.23-.17-.34-.22.29.1.26.22.14.1-.05-.05-.21-.27-.04-.02.18.27.01,0-.02-.04-.06-.1-.25-.3-.01.03-.1-.14-.13-.38-.16-.55,0-.01-.07-.47-.04-.19.02.24,0-.07,0-.13-.03-.39-.03-.79,0-1.18,0-.09.01-.18.02-.27.02-.23.12-.17-.02.08.06-.11.05-.31.08-.43.04-.16.08-.31.13-.46.08-.24.13-.08-.04.07.06-.05.1-.21.14-.28.03-.06.07-.11.11-.17.14-.25-.06.11-.09.11.04,0,.43-.45.19-.21-.2.2.02,0,.08-.03.21-.14-.08.07-.08.02,0-.01.22-.07.25-.07.09-.02.17-.04.26-.05l-.2.03c.11-.07.47-.02.6-.02.19,0,.39,0,.58.01s.38.02.57.03c.14.01.38-.04-.02-.01.12,0,.26.04.37.07.16.03.32.08.48.13.04.01.19.05.23.08-.26-.23-.17-.07-.03,0,.04.02.26.12.26.16,0,0-.32-.28-.08-.06.05.05.11.1.16.15.05.05.1.11.15.16l-.14-.18c.05.14.19.28.26.42.16.31-.06-.02-.02-.07,0,0,.08.22.07.21.05.16.08.32.11.49.05.24-.01-.45-.02-.08,0,.09,0,.19,0,.28s0,.19-.01.28c0,.16-.1.17.02-.13-.06.15-.07.33-.12.49-.02.07-.05.23-.1.28.01-.01.19-.38.03-.09-.1.18-.2.34-.3.51-.17.26.04-.03.06-.06-.05.1-.16.19-.23.27-.15.16-.31.32-.48.46-.12.1-.18.27.02,0-.05.07-.18.13-.25.17-.18.12-.37.24-.57.34-.03.02-.22.12-.22.11.2-.08.24-.09.11-.05-.06.02-.12.04-.19.06-.36.12.09-.02.08,0,0,0-.34.02-.38-.01.08.07.31.06.07,0-.13-.03-.27-.06-.4-.09-.11-.03-.22-.07-.33-.11-.07-.02-.13-.05-.2-.07.2.09.21.09.03,0-.82-.39-1.92-.26-2.39.63-.41.78-.25,1.97.63,2.39,1.23.58,2.71,1.04,4.06.55,1.07-.38,2.1-1.07,2.86-1.91,1.63-1.78,2.17-4.24,1.13-6.47-.53-1.12-1.5-1.91-2.63-2.36-1-.4-2.12-.48-3.19-.48-1.3,0-2.61.28-3.55,1.24-.73.75-1.17,1.78-1.33,2.81-.2,1.28-.26,2.72.16,3.96.21.62.51,1.21.98,1.68.43.42.96.71,1.5.97.82.39,1.92.26,2.39-.63.41-.78.25-1.97-.63-2.39h0Z"/>
  </g>
</svg>