<?xml version="1.0" encoding="UTF-8"?>
<svg id="_2" data-name="2" xmlns="http://www.w3.org/2000/svg" viewBox="0 0 60 60">
  <defs>
    <style>
      .cls-1 {
        fill: #f29500;
      }

      .cls-2 {
        fill: #fff;
      }

      .cls-3 {
        fill: #009890;
      }
    </style>
  </defs>
  <path class="cls-3" d="M3.84,10.52h52.16c1.38,0,2.51,1.12,2.51,2.51v4.91H1.33v-4.91c0-1.38,1.12-2.51,2.51-2.51Z"/>
  <path class="cls-3" d="M1.49,24.15h57.18v22.82c0,1.39-1.12,2.51-2.51,2.51H4c-1.39,0-2.51-1.12-2.51-2.51v-22.82h0Z"/>
  <rect class="cls-1" x="5.14" y="35.36" width="10.68" height="8.11" rx=".75" ry=".75"/>
  <path class="cls-2" d="M27.03,34.13c-.01-.25-.02-.5.01-.75l-.02.13c.02-.14.05-.28.11-.41l-.05.11c.04-.09.09-.18.15-.26l-.08.1c.05-.06.1-.11.16-.16l-.1.08c.07-.05.14-.1.22-.13l-.11.05c.09-.04.18-.06.27-.07l-.13.02c.11-.01.22-.01.32,0l-.13-.02c.1.01.2.04.3.08l-.11-.05c.08.04.16.08.24.14l-.1-.08c.07.05.13.11.18.18l-.08-.1c.05.07.09.14.13.22l-.05-.11c.04.1.07.19.08.3l-.02-.13c.01.11.01.22,0,.34l.02-.13c-.02.12-.05.23-.09.34l.05-.11c-.04.1-.09.19-.16.27l.08-.1c-.06.08-.13.14-.2.2l.1-.08c-.08.06-.17.11-.26.15l.11-.05c-.11.04-.21.07-.33.09l.13-.02c-.13.02-.26.02-.38,0l.13.02c-.12-.02-.24-.05-.36-.1l.11.05c-.11-.04-.21-.1-.3-.17l.1.08s-.08-.07-.12-.11c-.09-.09-.22-.14-.34-.14s-.26.05-.34.14-.15.21-.14.34.05.25.14.34c.46.46,1.16.64,1.79.47.15-.04.3-.1.44-.19s.26-.18.36-.3c.2-.23.35-.51.4-.82s.05-.63-.06-.92c-.03-.09-.07-.18-.12-.26s-.11-.16-.17-.23c-.09-.11-.22-.21-.34-.28-.26-.15-.57-.23-.86-.23-.15,0-.3.02-.45.07s-.28.1-.4.19c-.16.12-.29.24-.4.4-.1.14-.17.31-.22.47-.09.3-.1.63-.1.95,0,.07,0,.14,0,.21,0,.13.05.25.14.34.08.08.22.15.34.14s.25-.05.34-.14.15-.21.14-.34h0Z"/>
  <path class="cls-2" d="M30.74,34.39c-.04-.11-.06-.23-.08-.34l.02.13c-.02-.19-.02-.37,0-.56l-.02.13c.03-.19.07-.37.15-.54l-.05.11c.07-.16.16-.31.26-.45l-.08.1c.06-.08.13-.15.2-.21l-.1.08s.1-.07.16-.1l-.11.05c.06-.03.13-.04.2-.06l-.13.02c.09-.01.18-.01.26,0l-.13-.02c.1.01.21.04.3.08l-.11-.05c.1.04.2.1.28.17l-.1-.08c.09.07.17.15.24.25l-.08-.1c.08.1.14.21.19.32l-.05-.11c.05.12.08.24.1.36l-.02-.13c.01.1.01.21,0,.31l.02-.13c-.01.1-.04.2-.08.29l.05-.11c-.03.08-.08.15-.13.22l.08-.1c-.06.08-.13.14-.2.2l.1-.08c-.09.07-.18.12-.29.17l.11-.05c-.11.04-.22.07-.33.09l.13-.02c-.11.01-.23.02-.34,0l.13.02c-.09-.01-.19-.04-.27-.08l.11.05c-.08-.03-.15-.07-.21-.12l.1.08s-.05-.04-.08-.07c-.09-.09-.21-.14-.34-.14-.12,0-.26.05-.34.14s-.15.21-.14.34.05.25.14.34c.21.2.48.35.77.39s.6.04.89-.07.54-.25.73-.48c.13-.15.21-.3.29-.48.06-.15.08-.3.1-.46.03-.31-.06-.63-.19-.91s-.36-.52-.61-.71c-.13-.09-.27-.16-.42-.21-.06-.02-.13-.04-.2-.05-.11-.02-.23-.04-.34-.03-.23,0-.47.06-.66.19s-.33.29-.46.47c-.09.12-.16.25-.22.38-.07.17-.14.34-.18.52-.08.37-.08.73,0,1.1.01.07.03.14.06.21.04.12.11.22.22.29s.25.09.37.05.23-.11.29-.22.09-.25.05-.37h0Z"/>
  <path class="cls-2" d="M34.38,34.06s-.08-.08-.12-.13l.08.1c-.06-.07-.1-.15-.14-.23l.05.11c-.04-.1-.07-.2-.08-.31l.02.13c-.02-.12-.02-.24,0-.36l-.02.13c.02-.12.05-.24.1-.35l-.05.11c.04-.1.09-.19.16-.27l-.08.1c.06-.08.12-.14.2-.2l-.1.08c.07-.05.14-.09.22-.13l-.11.05c.08-.03.17-.06.26-.07l-.13.02c.09-.01.19-.01.28,0l-.13-.02c.11.02.22.05.33.09l-.11-.05c.11.05.21.11.31.18l-.1-.08c.09.07.17.15.24.24l-.08-.1c.06.08.12.17.16.27l-.05-.11c.03.08.06.17.07.26l-.02-.13c.01.09.01.18,0,.27l.02-.13c-.01.09-.04.17-.07.26l.05-.11c-.04.09-.09.18-.16.26l.08-.1c-.07.09-.15.17-.24.24l.1-.08c-.09.07-.2.13-.3.18l.11-.05c-.11.05-.22.08-.34.09l.13-.02c-.1.01-.19.01-.29,0l.13.02c-.09-.01-.17-.04-.26-.07l.11.05s-.02-.01-.04-.02c-.12-.06-.24-.08-.37-.05-.11.03-.23.12-.29.22-.06.11-.09.25-.05.37.04.11.11.24.22.29.09.04.18.08.27.11s.19.04.29.05c.16.02.32,0,.48-.03.31-.06.6-.23.83-.43s.42-.49.5-.79c.04-.15.06-.32.05-.48,0-.1-.02-.2-.05-.29s-.07-.18-.11-.27c-.13-.29-.37-.53-.63-.7s-.59-.28-.91-.29-.64.08-.89.26c-.07.05-.15.11-.21.18s-.12.14-.18.21c-.09.12-.15.26-.21.4-.04.11-.07.22-.09.33-.02.15-.04.3-.02.45s.04.3.09.45c.03.09.07.17.12.25s.1.15.16.23c.04.04.07.09.12.12.09.09.21.14.34.14.12,0,.26-.05.34-.14s.15-.21.14-.34-.05-.25-.14-.34h0Z"/>
  <path class="cls-2" d="M38.14,34.12c-.1-.13-.19-.28-.25-.43l.05.11c-.07-.17-.12-.36-.15-.54l.02.13c-.02-.18-.02-.37,0-.55l-.02.13c0-.05.02-.1.03-.15l-.12.21s.03-.02.04-.04l-.1.08c.06-.05.13-.09.21-.12l-.11.05c.09-.04.18-.06.27-.07l-.13.02c.11-.01.21-.01.32,0l-.13-.02c.12.02.23.05.35.09l-.11-.05c.1.04.19.1.28.16l-.1-.08c.08.06.14.13.2.2l-.08-.1c.05.07.1.15.13.23l-.05-.11c.03.08.05.16.06.24l-.02-.13c.01.09,0,.17,0,.26l.02-.13c-.01.09-.04.18-.08.27l.05-.11c-.04.1-.1.19-.16.28l.08-.1c-.07.09-.15.17-.24.24l.1-.08c-.09.07-.18.12-.28.16l.11-.05c-.09.04-.19.06-.28.08l.13-.02c-.09.01-.18.01-.27,0l.13.02s-.09-.02-.14-.03c-.12-.03-.26-.01-.37.05-.1.06-.19.17-.22.29-.03.12-.02.26.05.37s.16.18.29.22c.57.17,1.21-.06,1.6-.49.1-.11.19-.23.26-.35s.13-.27.16-.41.05-.29.04-.44c0-.09-.02-.18-.04-.27s-.06-.16-.09-.24c-.05-.12-.13-.22-.21-.32-.06-.07-.13-.14-.2-.2-.11-.08-.21-.16-.33-.22s-.24-.11-.37-.14c-.26-.06-.53-.07-.8-.01-.13.03-.25.08-.36.14-.04.02-.08.05-.12.07-.13.1-.26.19-.3.37-.13.63-.03,1.31.31,1.86.03.06.07.11.11.16.03.06.07.1.12.13.05.04.1.07.16.09.11.03.27.02.37-.05s.19-.16.22-.29.03-.27-.05-.37h0Z"/>
  <path class="cls-2" d="M42.69,34.22s-.03-.02-.04-.03l.1.08c-.1-.08-.2-.17-.28-.28l.08.1c-.08-.11-.15-.23-.21-.36l.05.11c-.06-.13-.09-.27-.11-.41l.02.13c-.01-.11-.02-.23,0-.34l-.02.13c0-.05.02-.11.04-.16l-.05.11s.03-.05.04-.08l-.08.1s.04-.05.06-.07l-.1.08s.07-.05.11-.06l-.11.05c.12-.05.26-.07.39-.09l-.13.02c.18-.02.37-.03.55,0l-.13-.02c.15.02.29.06.43.12l-.11-.05c.11.05.21.1.3.18l-.1-.08c.08.07.16.14.22.22l-.08-.1c.07.09.13.18.17.29l-.05-.11c.04.1.07.21.09.32l-.02-.13c.01.09.01.18,0,.28l.02-.13c-.01.09-.03.17-.07.25l.05-.11c-.03.06-.06.12-.1.18l.08-.1c-.05.06-.1.11-.15.15l.1-.08c-.07.05-.14.1-.23.13l.11-.05c-.08.03-.16.06-.25.07l.13-.02c-.08,0-.15,0-.23,0l.13.02c-.06,0-.13-.03-.19-.05l.11.05c-.05-.02-.1-.05-.15-.08l.1.08s-.02-.02-.03-.03c-.1-.08-.21-.14-.34-.14-.12,0-.26.05-.34.14s-.15.21-.14.34.04.26.14.34c.24.21.54.33.86.31.28-.01.56-.1.78-.27.15-.11.26-.22.37-.38.08-.12.14-.26.17-.4.07-.3.05-.63-.06-.92s-.28-.55-.52-.74c-.26-.21-.57-.36-.9-.42s-.68-.05-1.02.02c-.2.04-.39.12-.55.25-.15.12-.24.32-.27.51-.03.22-.02.43.01.65.03.18.1.34.17.51.15.33.4.6.69.8.1.07.26.08.37.05s.23-.12.29-.22c.06-.11.09-.25.05-.37s-.11-.21-.22-.29h0Z"/>
  <path class="cls-2" d="M46.24,34.33s-.09-.02-.13-.04l.11.05c-.08-.03-.15-.08-.22-.13l.1.08c-.07-.05-.12-.11-.18-.18l.08.1c-.06-.07-.11-.16-.14-.24l.05.11c-.04-.09-.06-.18-.08-.27l.02.13c-.01-.08-.01-.17,0-.25l-.02.13c.01-.07.03-.14.06-.21l-.05.11c.03-.08.07-.15.13-.21l-.08.1c.05-.07.11-.12.18-.18l-.1.08c.07-.06.15-.1.24-.14l-.11.05c.09-.04.18-.06.28-.08l-.13.02c.08,0,.17-.01.25,0l-.13-.02c.08.01.16.03.24.07l-.11-.05c.09.04.18.09.26.16l-.1-.08c.12.1.23.21.33.34l-.08-.1c.1.13.19.27.25.43l-.05-.11c.05.12.08.24.1.37l-.02-.13c.01.1.01.2,0,.3l.02-.13c-.01.08-.03.15-.06.23l.05-.11c-.03.06-.06.12-.1.17l.08-.1c-.05.06-.1.11-.16.16l.1-.08c-.06.05-.13.09-.2.12l.11-.05c-.06.03-.13.04-.2.06l.13-.02c-.06,0-.12,0-.18,0l.13.02s-.09-.02-.14-.04l.11.05s-.09-.04-.13-.07l.1.08h-.01c-.1-.09-.2-.15-.34-.15-.12,0-.26.05-.34.14s-.15.21-.14.34c0,.12.04.26.14.34.14.11.28.21.46.24s.35.03.53,0c.27-.06.54-.23.71-.44.12-.15.21-.3.26-.48.04-.16.06-.35.05-.52-.04-.35-.15-.68-.35-.97s-.43-.55-.73-.72c-.14-.08-.29-.14-.44-.17-.2-.03-.36-.03-.56,0-.29.05-.56.21-.77.4-.11.1-.2.22-.27.35-.09.18-.13.34-.16.54-.03.32.07.67.24.93.2.3.49.54.85.63.12.03.26.02.37-.05.1-.06.19-.17.22-.29.03-.12.02-.26-.05-.37s-.16-.19-.29-.22h0Z"/>
  <path class="cls-2" d="M49.8,34.57c-.07-.07-.14-.14-.2-.22l.08.1c-.1-.13-.18-.26-.24-.41l.05.11c-.05-.12-.08-.24-.1-.37l.02.13c-.01-.1-.01-.2,0-.3l-.02.13c.01-.09.04-.18.07-.27l-.05.11c.04-.09.08-.17.14-.24l-.08.1c.05-.07.11-.13.18-.18l-.1.08c.06-.05.12-.08.19-.11l-.11.05c.06-.03.13-.05.2-.06l-.13.02c.07,0,.14,0,.2,0l-.13-.02c.09.01.17.04.26.07l-.11-.05c.11.05.22.11.32.19l-.1-.08c.1.08.18.16.26.26l-.08-.1c.08.1.15.22.2.34l-.05-.11c.05.11.08.23.09.34l-.02-.13c.01.1.01.19,0,.29l.02-.13c-.01.09-.03.17-.07.25l.05-.11c-.03.07-.06.13-.11.19l.08-.1c-.04.05-.09.1-.14.14l.1-.08c-.06.05-.13.09-.21.12l.11-.05c-.09.04-.18.06-.27.07l.13-.02c-.09.01-.18.01-.27,0l.13.02c-.07-.01-.14-.03-.21-.06l.11.05c-.06-.02-.11-.05-.16-.09l.1.08s-.09-.07-.12-.12l.08.1s-.05-.08-.07-.12c-.05-.1-.18-.19-.29-.22-.11-.03-.27-.02-.37.05s-.19.16-.22.29l-.02.13c0,.09.02.17.07.24.13.28.39.47.68.57.26.09.56.08.82.02s.53-.21.7-.42c.12-.15.21-.29.27-.48.05-.15.07-.31.07-.47,0-.65-.4-1.29-.96-1.61-.34-.2-.78-.3-1.16-.15-.19.07-.35.17-.5.31-.12.11-.22.25-.29.39-.19.38-.23.81-.11,1.22.11.38.34.73.63,1.01.09.09.21.14.34.14.12,0,.26-.05.34-.14s.15-.21.14-.34-.05-.25-.14-.34h0Z"/>
  <path class="cls-2" d="M53.12,33.92s-.08-.05-.12-.07l.1.08c-.05-.04-.1-.09-.15-.14l.08.1c-.05-.06-.09-.13-.12-.21l.05.11c-.03-.08-.06-.17-.07-.26l.02.13c-.01-.09-.01-.19,0-.28l-.02.13c.01-.08.03-.16.06-.23l-.05.11c.03-.07.06-.13.11-.18l-.08.1c.05-.07.11-.12.17-.17l-.1.08c.07-.05.15-.1.23-.14l-.11.05c.1-.04.2-.07.3-.08l-.13.02c.1-.01.2-.01.3,0l-.13-.02c.09.01.19.04.28.07l-.11-.05c.08.03.16.08.23.13l-.1-.08c.07.06.14.13.2.2l-.08-.1c.06.08.11.17.16.27l-.05-.11c.04.1.07.21.09.32l-.02-.13c.01.1.01.2,0,.31l.02-.13c-.01.09-.04.18-.07.26l.05-.11c-.03.08-.07.15-.12.21l.08-.1c-.05.06-.11.12-.17.17l.1-.08c-.07.06-.15.1-.23.14l.11-.05c-.1.04-.19.07-.3.08l.13-.02c-.1.01-.2.01-.31,0l.13.02c-.09-.01-.18-.04-.26-.07l.11.05c-.07-.03-.14-.07-.2-.12l.1.08s-.06-.05-.09-.08c-.09-.09-.22-.14-.34-.14s-.26.05-.34.14-.15.21-.14.34.05.25.14.34c.1.1.23.2.36.26.08.04.17.08.26.1s.19.04.28.05c.3.04.6-.04.87-.16.13-.06.25-.15.36-.25.06-.05.1-.11.15-.17s.09-.12.13-.19c.07-.13.13-.28.15-.43.01-.09.03-.19.03-.29,0-.08,0-.15-.02-.23-.09-.63-.53-1.21-1.17-1.37-.15-.04-.32-.06-.47-.05s-.32.03-.47.09c-.09.03-.18.07-.27.12s-.16.11-.24.17c-.05.04-.09.08-.13.13-.06.07-.12.15-.17.23-.08.15-.13.31-.16.49s-.02.34.02.52c.03.15.09.29.16.42.05.08.11.16.17.23.04.04.07.08.12.12.07.06.15.12.23.16.11.06.24.08.37.05.11-.03.23-.12.29-.22.06-.11.09-.25.05-.37-.04-.12-.11-.23-.22-.29h0Z"/>
  <rect class="cls-2" x="1.33" y="17.94" width="57.18" height="6.59"/>
</svg>