<?xml version="1.0" encoding="UTF-8"?>
<svg id="_9" data-name="9" xmlns="http://www.w3.org/2000/svg" viewBox="0 0 60 60">
  <defs>
    <style>
      .cls-1 {
        fill: #009690;
        stroke: #009690;
        stroke-linecap: round;
        stroke-linejoin: round;
        stroke-width: 6.24px;
      }

      .cls-2 {
        fill: #fff;
        stroke: #fff;
        stroke-miterlimit: 10;
        stroke-width: .16px;
      }
    </style>
  </defs>
  <rect class="cls-1" x="7.15" y="7.15" width="45.7" height="45.7" rx="7.14" ry="7.14"/>
  <path class="cls-2" d="M17.96,44.16s.39,2.05-3.81.49c-9.84-5.95,2.41-38.88,16.47-25.9,22.23-16.26,26.38,22.46,3.46,25.31-1.17.14-2.24-.7-2.37-1.87-.02-.17,0-.27.04-.25,2.43.78,14.05-13.71,11.42-20.6-3.23-4.4-8.92,2.36-10.97,5.06-.99,1.24-3.14,3.55-3.69,3.06-.51-.45-1.07-1.94-1.28-3.3-.3-2.03.14-7.01-2.76-5.21-4.28,2.64-14.16,14.48-6.51,23.22Z"/>
</svg>