<?xml version="1.0" encoding="UTF-8"?>
<svg id="_1" data-name="1" xmlns="http://www.w3.org/2000/svg" viewBox="0 0 60 60">
  <defs>
    <style>
      .cls-1 {
        fill: #f29500;
        stroke: #f29500;
        stroke-width: 3.37px;
      }

      .cls-1, .cls-2, .cls-3, .cls-4 {
        stroke-miterlimit: 10;
      }

      .cls-2 {
        stroke: #009890;
        stroke-width: 10.1px;
      }

      .cls-2, .cls-3, .cls-4 {
        fill: none;
        stroke-linecap: round;
      }

      .cls-3 {
        stroke-width: 2.85px;
      }

      .cls-3, .cls-4 {
        stroke: #fff;
      }

      .cls-4 {
        stroke-width: 2.73px;
      }

      .cls-5 {
        fill: #00807e;
      }

      .cls-6 {
        fill: #009890;
      }
    </style>
  </defs>
  <path class="cls-2" d="M5.62,35.06S10.22,15.7,28.64,15.7c23.22,0,25.98,16.28,25.98,16.28"/>
  <path class="cls-5" d="M4.92,38.88c.18-3.09,2.37-5.94,4.01-8.46s3.46-5,5.68-7.08,4.62-3.63,7.42-4.48c2.21-.67,4.95-1.34,7.26-1.13.97.09.96-1.43,0-1.51-1.29-.11-2.61.13-3.88.37-1.4.26-2.82.5-4.17.94-2.89.95-5.49,2.67-7.7,4.75-2.41,2.26-4.37,4.98-6.15,7.75s-3.79,5.55-3.98,8.86c-.06.97,1.46.97,1.51,0h0Z"/>
  <path class="cls-1" d="M19.35,21.85c-4.59,2.9-9.49,7.62-12.03,14.96-2.65,7.68,1.81,16.02,9.61,18.32,3.28.97,7.41,1.64,12.57,1.64,9.23,0,15.8-3,20.07-6.02,4.88-3.46,6.96-9.68,4.78-15.26-1.91-4.9-6.06-10.78-14.97-14.87-6.37-2.92-14.03-2.56-20.04,1.24Z"/>
  <circle class="cls-6" cx="24.38" cy="9.03" r="6.62"/>
  <circle class="cls-6" cx="33.66" cy="8.43" r="6.14"/>
  <path class="cls-5" d="M27.71,6.44c.53.9.87,1.99.93,2.98.02.3.02.6,0,.9,0,.15-.02.3-.04.45,0,.06-.02.13-.05.28-.07.29-.1.44-.29.66-.05.06-.27.24-.38.32-.2.14-.42.27-.63.39-.12.06-.23.12-.35.17-.07.03-.07.03,0,0-.07.03-.14.06-.21.08-.25.09-.5.17-.75.23-.11.03-.22.04-.33.07-.13.02-.15.02-.04.01-.06,0-.11.01-.17.02-.24.02-.48.03-.71.02-.04,0-.46-.05-.25-.02-.11-.02-.21-.04-.32-.06s-.21-.05-.31-.09c-.07-.02-.14-.05-.2-.07.1.04.09.04-.03-.02-.23-.12-.44-.25-.65-.4-.47-.36-1.23-.08-1.5.39-.33.56-.08,1.14.39,1.5,1.64,1.23,3.93,1.17,5.76.41,1.04-.43,2.19-1.07,2.73-2.11s.6-2.32.48-3.45c-.14-1.34-.53-2.61-1.21-3.77s-2.61-.12-1.89,1.11h0Z"/>
  <path class="cls-5" d="M37.28,8.03c.06.19.12.38.15.58-.03-.24,0,.05,0,.1,0,.12,0,.23,0,.35,0,.05,0,.1-.01.15.02-.11.02-.12,0-.04-.02.1-.04.2-.06.29s-.05.19-.09.29c-.02.05-.03.1-.05.14.04-.09.05-.1.01-.03-.09.2-.2.39-.32.58-.02.04-.2.27-.07.11-.06.08-.13.16-.2.23-.14.15-.29.29-.45.41.15-.11-.07.04-.11.06-.09.05-.17.11-.26.15,0,0-.29.13-.12.06-.1.04-.2.08-.31.11s-.21.06-.31.08c-.01,0-.35.06-.13.03-.21.03-.43.03-.65.03-.11,0-.22-.01-.32-.02-.25-.02.09.03-.14-.02-.21-.05-.43-.09-.64-.16-.1-.03-.21-.07-.31-.11.18.07-.11-.05-.14-.07-.21-.1-.42-.22-.62-.36-.05-.03-.09-.06-.13-.09.06.05.06.05,0,0-.1-.08-.19-.17-.29-.25-.43-.4-1.12-.43-1.55,0s-.44,1.15,0,1.55c1.79,1.67,4.54,2.27,6.76,1.1,2.02-1.06,3.2-3.66,2.46-5.86-.19-.56-.75-.93-1.35-.77-.55.15-.96.79-.77,1.35h0Z"/>
  <path class="cls-4" d="M36.53,31.92s-.87-3.65-6.36-3.65-6.84,3.65-6.84,5.95c0,4.98,13.58.34,13.58,6.36,0,4.88-6.74,5.05-6.74,5.05,0,0-6.84.09-6.84-3.22"/>
  <line class="cls-3" x1="27.77" y1="25.76" x2="27.67" y2="48.16"/>
  <line class="cls-3" x1="32.29" y1="25.78" x2="32.19" y2="48.18"/>
</svg>